{"title":"Street 2015 Movies DVDRip XviD MSubs AAC New Source +Sample ☻rDX","uid":14696438,"size":739610308,"categoryP":"video","categoryS":"movies","magnet":"?xt=urn:btih:9aa0c2624bda433f6b392131088ece3eec83cc1a&amp;dn=Street+2015+Movies+DVDRip+XviD+MSubs+AAC+New+Source+%2BSample+%E2%98%BBrDX&amp;tr=udp%3A%2F%2Ftracker.leechers-paradise.org%3A6969&amp;tr=udp%3A%2F%2Fzer0day.ch%3A1337&amp;tr=udp%3A%2F%2Fopen.demonii.com%3A1337&amp;tr=udp%3A%2F%2Ftracker.coppersurfer.tk%3A6969&amp;tr=udp%3A%2F%2Fexodus.desync.com%3A6969","seeders":0,"leechers":0,"uploader":"basicssom","files":4,"time":1464241586,"description":"----------------------------------------------------------------\r\nStreet 2015 English Movies DVDRip XviD MSubs AAC New Source with Sample ☻rDX☻\r\n\r\nSCREEN SHOTS &amp; POSTER:\r\n  \nhttp://mobileshosting.com/2016/5/levis/index.htm  \nhttp://mobileshosting.com/2016/5/levis/1.html  \nhttp://mobileshosting.com/2016/5/levis/2.html  \nhttp://mobileshosting.com/2016/5/levis/3.html  \nhttp://mobileshosting.com/2016/5/levis/4.html  \nhttp://mobileshosting.com/2016/5/levis/5.html  \nhttp://mobileshosting.com/2016/5/levis/6.html  \nhttp://mobileshosting.com/2016/5/levis/7.html  \nhttp://mobileshosting.com/2016/5/levis/8.html  \nhttp://mobileshosting.com/2016/5/levis/9.html  \nhttp://mobileshosting.com/2016/5/levis/10.html\r\n\r\nFormat                                   : Matroska\r\nFormat version                           : Version 4 / Version 2\r\nFile size                                : 694 MiB\r\nDuration                                 : 1h 25mn\r\nOverall bit rate                         : 1 137 Kbps\r\nMovie name                               : Street 2015 English Movies DVDRip XviD MSubs AAC New Source ☻rDX☻\r\n\r\nVideo\r\nID                                       : 1\r\nFormat                                   : MPEG-4 Visual\r\nFormat profile                           : Advanced   \r\nFormat settings, BVOP                    : Yes\r\nFormat settings, QPel                    : No\r\nFormat settings, GMC                     : No warppoints\r\nFormat settings, Matrix                  : Default (H.263)\r\nCodec ID                                 : V_MS/VFW/FOURCC / XVID\r\nCodec ID/Hint                            : XviD\r\nDuration                                 : 1h 25mn\r\nBit rate                                 : 986 Kbps\r\nWidth                                    : 624 pixels\r\nHeight                                   : 352 pixels\r\nDisplay aspect ratio                     : 16:9\r\nFrame rate mode                          : Constant\r\nFrame rate                               : 23.976 fps\r\nColor space                              : YUV\r\nChroma subsampling                       : 4:2:0\r\nBit depth                                : 8 bits\r\nScan type                                : Progressive\r\nCompression mode                         : Lossy\r\nBits/(Pixel*Frame)                       : 0.187\r\nStream size                              : 602 MiB (87%)\r\nTitle                                    : ☻rDX☻\r\nWriting library                          : XviD 1.2.1 (UTC 2008-12-04)\r\nDefault                                  : Yes\r\nForced                                   : No\r\n\r\nAudio\r\nID                                       : 2\r\nFormat                                   : MPEG Audio\r\nFormat version                           : Version 1\r\nFormat profile                           : Layer 3\r\nMode                                     : Joint stereo\r\nMode extension                           : MS Stereo\r\nCodec ID                                 : A_MPEG/L3\r\nCodec ID/Hint                            : MP3\r\nDuration                                 : 1h 25mn\r\nBit rate mode                            : Constant\r\nBit rate                                 : 128 Kbps\r\nChannel(s)                               : 2 channels\r\nSampling rate                            : 48.0 KHz\r\nCompression mode                         : Lossy\r\nStream size                              : 78.2 MiB (11%)\r\nTitle                                    : ☻rDX☻\r\nWriting library                          : LAME3.97 \r\nEncoding settings                        : -m j -V 4 -q 2 -lowpass 17 -b 128\r\nDefault                                  : Yes\r\nForced                                   : No\r\n\r\nIMDB \nhttp://www.imdb.com/title/tt3602106/","torrent":{"xt":"urn:btih:9aa0c2624bda433f6b392131088ece3eec83cc1a","amp;dn":"Street+2015+Movies+DVDRip+XviD+MSubs+AAC+New+Source+%2BSample+%E2%98%BBrDX","amp;tr":["udp%3A%2F%2Ftracker.leechers-paradise.org%3A6969","udp%3A%2F%2Fzer0day.ch%3A1337","udp%3A%2F%2Fopen.demonii.com%3A1337","udp%3A%2F%2Ftracker.coppersurfer.tk%3A6969","udp%3A%2F%2Fexodus.desync.com%3A6969"],"infoHash":"9aa0c2624bda433f6b392131088ece3eec83cc1a","infoHashBuffer":{"type":"Buffer","data":[154,160,194,98,75,218,67,63,107,57,33,49,8,142,206,62,236,131,204,26]},"announce":[],"urlList":[]}}